<svg width="31" height="28" viewBox="0 0 31 28" fill="none" xmlns="http://www.w3.org/2000/svg">
<path d="M26.0089 8.63585C27.1729 9.41678 27.8664 10.2445 28.0895 11.119C28.4281 12.4457 29.509 23.7131 28.0501 24.7168C26.5911 25.7204 22.6315 25.293 17.0534 26.077C11.4753 26.8609 7.27047 28.604 5.8546 27.6509C4.43872 26.6977 2.32341 16.1241 2.35122 14.5785C2.36976 13.5481 2.89065 12.5915 3.91391 11.7087C2.55265 11.3488 1.77363 10.4687 1.57684 9.06851C1.28721 7.00769 3.66629 1.6347 12.8948 0.148745C12.7347 0.677409 12.6841 1.24731 12.7658 1.82874C13.0062 3.53868 14.3185 4.83747 15.9399 5.15788C16.3238 7.23335 18.3014 8.65384 20.439 8.35342C21.2009 8.24635 21.883 7.93471 22.4362 7.48281C23.2968 8.36581 24.5608 8.84124 25.8863 8.65495C25.9274 8.64917 25.9683 8.6428 26.0089 8.63585Z" fill="#5555FF"/>
</svg>
